<?xml version="1.0" encoding="utf-8"?>
<svg version="1.1" xmlns:xlink="http://www.w3.org/1999/xlink" width="23px" height="10px" preserveAspectRatio="xMinYMid meet" viewBox="6922 2599  23 8" xmlns="http://www.w3.org/2000/svg">
  <path d="M 6922 2603  L 6935 2603  A 5 5 0 0 1 6940 2608 L 6940 2849  A 3 3 0 0 1 6943 2852 A 3 3 0 0 1 6940 2855 L 6940 3685  A 5 5 0 0 1 6935 3690 L 6605 3690  A 3 3 0 0 0 6602 3687 A 3 3 0 0 0 6599 3690 L 6185 3690  A 5 5 0 0 0 6180 3695 L 6180 3714  A 5 5 0 0 0 6185 3719 L 6192 3719  " stroke-width="2" stroke="#d9001b" fill="none" />
  <path d="M 6191 3726.6  L 6198 3719  L 6191 3711.4  L 6191 3726.6  Z " fill-rule="nonzero" fill="#d9001b" stroke="none" />
</svg>