<?xml version="1.0" encoding="utf-8"?>
<svg version="1.1" xmlns:xlink="http://www.w3.org/1999/xlink" width="10px" height="545px" preserveAspectRatio="xMidYMin meet" viewBox="5610 3427  8 545" xmlns="http://www.w3.org/2000/svg">
  <path d="M 5614 3972  L 5614 3437  A 5 5 0 0 1 5619 3432 L 5886 3432  A 5 5 0 0 0 5891 3427 L 5891 2986  A 5 5 0 0 1 5896 2981 L 6104 2981  A 5 5 0 0 0 6109 2976 L 6109 2855  A 3 3 0 0 0 6112 2852 A 3 3 0 0 0 6109 2849 L 6109 2692  A 3 3 0 0 0 6112 2689 A 3 3 0 0 0 6109 2686 L 6109 2666  " stroke-width="2" stroke="#d9001b" fill="none" />
  <path d="M 6116.6 2667  L 6109 2660  L 6101.4 2667  L 6116.6 2667  Z " fill-rule="nonzero" fill="#d9001b" stroke="none" />
</svg>