<?xml version="1.0" encoding="utf-8"?>
<svg version="1.1" xmlns:xlink="http://www.w3.org/1999/xlink" width="20px" height="20px" xmlns="http://www.w3.org/2000/svg">
  <g transform="matrix(1 0 0 1 -13079 -1848 )">
    <path d="M 13089 1848  C 13094.6 1848  13099 1852.4  13099 1858  C 13099 1863.6  13094.6 1868  13089 1868  C 13083.4 1868  13079 1863.6  13079 1858  C 13079 1852.4  13083.4 1848  13089 1848  Z " fill-rule="nonzero" fill="#0099ff" stroke="none" />
    <path d="M 13089 1848.5  C 13094.32 1848.5  13098.5 1852.68  13098.5 1858  C 13098.5 1863.32  13094.32 1867.5  13089 1867.5  C 13083.68 1867.5  13079.5 1863.32  13079.5 1858  C 13079.5 1852.68  13083.68 1848.5  13089 1848.5  Z " stroke-width="1" stroke="#797979" fill="none" />
  </g>
</svg>