<?xml version="1.0" encoding="utf-8"?>
<svg version="1.1" xmlns:xlink="http://www.w3.org/1999/xlink" width="20px" height="20px" xmlns="http://www.w3.org/2000/svg">
  <g transform="matrix(1 0 0 1 -13179 -1848 )">
    <path d="M 13189 1848  C 13194.6 1848  13199 1852.4  13199 1858  C 13199 1863.6  13194.6 1868  13189 1868  C 13183.4 1868  13179 1863.6  13179 1858  C 13179 1852.4  13183.4 1848  13189 1848  Z " fill-rule="nonzero" fill="#ffffff" stroke="none" />
    <path d="M 13189 1848.5  C 13194.32 1848.5  13198.5 1852.68  13198.5 1858  C 13198.5 1863.32  13194.32 1867.5  13189 1867.5  C 13183.68 1867.5  13179.5 1863.32  13179.5 1858  C 13179.5 1852.68  13183.68 1848.5  13189 1848.5  Z " stroke-width="1" stroke="#797979" fill="none" />
  </g>
</svg>