<?xml version="1.0" encoding="utf-8"?>
<svg version="1.1" xmlns:xlink="http://www.w3.org/1999/xlink" width="340px" height="40px" xmlns="http://www.w3.org/2000/svg">
  <defs>
    <mask fill="white" id="clip61">
      <path d="M 0 35  L 0 5  C 0 2.20000000000005  3.72139303482556 0  8.45771144278607 0  L 104.378109452731 0  L 331.542288557214 0  C 336.278606965174 0  340 2.20000000000005  340 5  L 340 35  C 340 37.8  336.278606965174 40  331.542288557214 40  L 8.45771144278607 40  C 3.72139303482556 40  0 37.8  0 35  Z " fill-rule="evenodd" />
    </mask>
  </defs>
  <g transform="matrix(1 0 0 1 -9603 -2154 )">
    <path d="M 0 35  L 0 5  C 0 2.20000000000005  3.72139303482556 0  8.45771144278607 0  L 104.378109452731 0  L 331.542288557214 0  C 336.278606965174 0  340 2.20000000000005  340 5  L 340 35  C 340 37.8  336.278606965174 40  331.542288557214 40  L 8.45771144278607 40  C 3.72139303482556 40  0 37.8  0 35  Z " fill-rule="nonzero" fill="#ffffff" stroke="none" transform="matrix(1 0 0 1 9603 2154 )" />
    <path d="M 0 35  L 0 5  C 0 2.20000000000005  3.72139303482556 0  8.45771144278607 0  L 104.378109452731 0  L 331.542288557214 0  C 336.278606965174 0  340 2.20000000000005  340 5  L 340 35  C 340 37.8  336.278606965174 40  331.542288557214 40  L 8.45771144278607 40  C 3.72139303482556 40  0 37.8  0 35  Z " stroke-width="2" stroke="#797979" fill="none" transform="matrix(1 0 0 1 9603 2154 )" mask="url(#clip61)" />
  </g>
</svg>