<?xml version="1.0" encoding="utf-8"?>
<svg version="1.1" xmlns:xlink="http://www.w3.org/1999/xlink" width="50px" height="20px" xmlns="http://www.w3.org/2000/svg">
  <defs>
    <mask fill="white" id="clip11">
      <path d="M 0 15  L 0 5  C 0 2.20000000000005  2.19999999999982 0  5 0  L 19.3191489361707 0  L 45 0  C 47.8000000000002 0  50 2.20000000000005  50 5  L 50 15  C 50 17.8  47.8000000000002 20  45 20  L 22.5106382978729 20  L 5 20  C 2.19999999999982 20  0 17.8  0 15  Z " fill-rule="evenodd" />
    </mask>
  </defs>
  <g transform="matrix(1 0 0 1 -6804 -808 )">
    <path d="M 0 15  L 0 5  C 0 2.20000000000005  2.19999999999982 0  5 0  L 19.3191489361707 0  L 45 0  C 47.8000000000002 0  50 2.20000000000005  50 5  L 50 15  C 50 17.8  47.8000000000002 20  45 20  L 22.5106382978729 20  L 5 20  C 2.19999999999982 20  0 17.8  0 15  Z " fill-rule="nonzero" fill="#ffffff" stroke="none" transform="matrix(1 0 0 1 6804 808 )" />
    <path d="M 0 15  L 0 5  C 0 2.20000000000005  2.19999999999982 0  5 0  L 19.3191489361707 0  L 45 0  C 47.8000000000002 0  50 2.20000000000005  50 5  L 50 15  C 50 17.8  47.8000000000002 20  45 20  L 22.5106382978729 20  L 5 20  C 2.19999999999982 20  0 17.8  0 15  Z " stroke-width="2" stroke="#797979" fill="none" transform="matrix(1 0 0 1 6804 808 )" mask="url(#clip11)" />
  </g>
</svg>