<?xml version="1.0" encoding="utf-8"?>
<svg version="1.1" xmlns:xlink="http://www.w3.org/1999/xlink" width="39px" height="31px" xmlns="http://www.w3.org/2000/svg">
  <g transform="matrix(1 0 0 1 -3344 -1532 )">
    <path d="M 15.36640625 14.0934495192308  C 16.5106770833333 13.0439703525641  17.8885416666667 12.5192307692308  19.5 12.5192307692308  C 21.1114583333333 12.5192307692308  22.4893229166667 13.0439703525641  23.63359375 14.0934495192308  C 24.7778645833333 15.1429286858974  25.35 16.4066506410256  25.35 17.8846153846154  C 25.35 19.3625801282051  24.7778645833333 20.6263020833333  23.63359375 21.67578125  C 22.4893229166667 22.7252604166667  21.1114583333333 23.25  19.5 23.25  C 17.8885416666667 23.25  16.5106770833333 22.7252604166667  15.36640625 21.67578125  C 14.2221354166667 20.6263020833333  13.65 19.3625801282051  13.65 17.8846153846154  C 13.65 16.4066506410256  14.2221354166667 15.1429286858974  15.36640625 14.0934495192308  Z M 29.25 4.76923076923077  L 33.8 4.76923076923077  C 35.2354166666667 4.76923076923077  36.4609375 5.23497596153846  37.4765625 6.16646634615385  C 38.4921875 7.09795673076923  39 8.22195512820513  39 9.53846153846154  L 39 26.2307692307692  C 39 27.5472756410256  38.4921875 28.6712740384615  37.4765625 29.6027644230769  C 36.4609375 30.5342548076923  35.2354166666667 31  33.8 31  L 5.2 31  C 3.76458333333333 31  2.5390625 30.5342548076923  1.5234375 29.6027644230769  C 0.5078125 28.6712740384615  0 27.5472756410256  0 26.2307692307692  L 0 9.53846153846154  C 0 8.22195512820513  0.5078125 7.09795673076923  1.5234375 6.16646634615385  C 2.5390625 5.23497596153846  3.76458333333333 4.76923076923077  5.2 4.76923076923077  L 9.75 4.76923076923077  L 10.7859375 2.23557692307692  C 11.0432291666667 1.6270032051282  11.5138020833333 1.10226362179487  12.19765625 0.661358173076922  C 12.8815104166667 0.220452724358977  13.5822916666667 0  14.3 0  L 24.7 0  C 25.4177083333333 0  26.1184895833333 0.220452724358977  26.80234375 0.661358173076922  C 27.4861979166667 1.10226362179487  27.9567708333333 1.6270032051282  28.2140625 2.23557692307692  L 29.25 4.76923076923077  Z M 13.07109375 23.7809495192308  C 14.8518229166667 25.4141626602564  16.9947916666667 26.2307692307692  19.5 26.2307692307692  C 22.0052083333333 26.2307692307692  24.1481770833333 25.4141626602564  25.92890625 23.7809495192308  C 27.7096354166667 22.1477363782051  28.6 20.1822916666667  28.6 17.8846153846154  C 28.6 15.5869391025641  27.7096354166667 13.6214943910256  25.92890625 11.98828125  C 24.1481770833333 10.3550681089744  22.0052083333333 9.53846153846154  19.5 9.53846153846154  C 16.9947916666667 9.53846153846154  14.8518229166667 10.3550681089744  13.07109375 11.98828125  C 11.2903645833333 13.6214943910256  10.4 15.5869391025641  10.4 17.8846153846154  C 10.4 20.1822916666667  11.2903645833333 22.1477363782051  13.07109375 23.7809495192308  Z " fill-rule="nonzero" fill="#cccccc" stroke="none" transform="matrix(1 0 0 1 3344 1532 )" />
  </g>
</svg>