<?xml version="1.0" encoding="utf-8"?>
<svg version="1.1" xmlns:xlink="http://www.w3.org/1999/xlink" width="40px" height="40px" xmlns="http://www.w3.org/2000/svg">
  <g transform="matrix(1 0 0 1 -88 -1070 )">
    <path d="M 108 1070  C 119.2 1070  128 1078.8  128 1090  C 128 1101.2  119.2 1110  108 1110  C 96.8 1110  88 1101.2  88 1090  C 88 1078.8  96.8 1070  108 1070  Z " fill-rule="nonzero" fill="#ffffff" stroke="none" />
    <path d="M 108 1070.5  C 118.92 1070.5  127.5 1079.08  127.5 1090  C 127.5 1100.92  118.92 1109.5  108 1109.5  C 97.08 1109.5  88.5 1100.92  88.5 1090  C 88.5 1079.08  97.08 1070.5  108 1070.5  Z " stroke-width="1" stroke="#797979" fill="none" />
  </g>
</svg>